<svg width="70" height="70" viewBox="0 0 70 70" fill="none" xmlns="http://www.w3.org/2000/svg">
<path d="M12.9811 40.5657L34.3153 60.6069C34.6397 60.9117 34.8019 61.0641 35 61.0641C35.198 61.0641 35.3602 60.9117 35.6846 60.6069L57.0188 40.5657L57.0188 40.5657C60.8816 36.937 62.813 35.1226 63.5238 32.9037C63.9496 31.5744 64.0604 30.1643 63.8474 28.7848C63.4918 26.4822 61.8674 24.3885 58.6186 20.2011L57.7163 19.0382C53.6979 13.8589 51.6887 11.2693 49.415 10.4964C47.1834 9.73775 44.7307 10.0019 42.7118 11.2182C40.6547 12.4575 39.243 15.4155 36.4194 21.3316C35.9789 22.2546 35.7586 22.7162 35.4624 22.8706C35.1726 23.0218 34.8273 23.0218 34.5375 22.8706C34.2413 22.7162 34.0211 22.2546 33.5805 21.3316C30.757 15.4155 29.3452 12.4575 27.2881 11.2182C25.2692 10.0019 22.8166 9.73775 20.5849 10.4964C18.3112 11.2693 16.302 13.8589 12.2836 19.0382L11.3813 20.2011C8.13253 24.3885 6.50812 26.4822 6.15256 28.7848C5.93954 30.1643 6.05032 31.5744 6.47612 32.9037C7.18688 35.1226 9.11828 36.937 12.9811 40.5657Z" stroke="black" stroke-width="2"/>
</svg>
