<svg width="50" height="50" viewBox="0 0 50 50" fill="none" xmlns="http://www.w3.org/2000/svg">
<path d="M9.27222 28.9756L24.3153 43.107C24.6397 43.4118 24.802 43.5642 25 43.5642C25.198 43.5642 25.3602 43.4118 25.6847 43.107L40.7277 28.9756C41.8721 27.9006 42.4443 27.3631 42.8646 26.8278C45.1056 23.9739 45.4136 20.0534 43.6457 16.8846C43.3141 16.2902 42.8329 15.67 41.8704 14.4295L41.2259 13.5988L41.2258 13.5986C40.3657 12.49 39.9356 11.9357 39.5796 11.5798C35.9703 7.97157 29.9509 8.61978 27.1926 12.9137C26.9205 13.3373 26.6183 13.9705 26.0139 15.2369C25.9196 15.4344 25.8725 15.5332 25.8341 15.5912C25.4387 16.1891 24.5612 16.1891 24.1658 15.5912C24.1275 15.5332 24.0803 15.4344 23.9861 15.2369C23.3816 13.9705 23.0794 13.3373 22.8073 12.9137C20.049 8.61978 14.0297 7.97157 10.4204 11.5798C10.0644 11.9357 9.63426 12.4901 8.77406 13.5988L8.77403 13.5988L8.12954 14.4295C7.16707 15.67 6.68584 16.2902 6.35424 16.8846C4.58637 20.0534 4.89435 23.9739 7.13533 26.8278C7.55567 27.3631 8.12785 27.9006 9.2722 28.9756L9.27222 28.9756Z" fill="#E63946" stroke="black" stroke-width="2"/>
</svg>
